<?xml version="1.0" encoding="utf-8"?>
<!-- Generator: Adobe Illustrator 27.5.0, SVG Export Plug-In . SVG Version: 6.00 Build 0)  -->
<svg version="1.1" id="Laag_1" xmlns="http://www.w3.org/2000/svg" xmlns:xlink="http://www.w3.org/1999/xlink" x="0px" y="0px"
	 viewBox="0 0 962.9 226.2" style="enable-background:new 0 0 962.9 226.2;" xml:space="preserve">
<style type="text/css">
	.st0{fill:#A9A8A9;}
	.st1{clip-path:url(#SVGID_00000034090685553981848460000000779028986893499011_);}
	.st2{fill:#001970;}
	.st3{fill:#62269E;}
	.st4{fill:#57C1E8;}
	.st5{fill:#61B4E4;}
	.st6{fill:#009BDE;}
	.st7{fill:#005CB9;}
	.st8{fill:#000A8B;}
	.st9{fill:#712177;}
	.st10{fill:#8431A6;}
	.st11{fill:#C5A7E1;}
	.st12{fill:#E2C8E6;}
	.st13{fill:#9ACAEB;}
	.st14{opacity:0.3;fill:#FFFFFF;enable-background:new    ;}
</style>
<path class="st0" d="M724,226c-5,0.1-9.6-3-11.4-7.7c-0.6-1.6-0.9-3.3-0.9-5v-0.1c0-1.7,0.3-3.4,0.9-4.9c0.6-1.5,1.5-2.9,2.6-4.1
	c1.1-1.2,2.5-2.1,3.9-2.7c1.6-0.7,3.3-1,5-1c1,0,2,0.1,3,0.3c0.9,0.2,1.7,0.4,2.5,0.8c0.8,0.3,1.5,0.7,2.1,1.2
	c0.7,0.5,1.3,1,1.9,1.6l-1.9,2c-1-1-2.2-1.8-3.4-2.4c-2.6-1.2-5.5-1.3-8.1-0.2c-1.1,0.5-2.2,1.2-3,2.1c-0.9,0.9-1.6,2-2,3.2
	c-0.5,1.3-0.7,2.6-0.7,4v0.1c0,1.4,0.2,2.7,0.7,4c0.5,1.2,1.1,2.3,2,3.2c0.8,0.9,1.9,1.6,3,2.2c1.2,0.5,2.5,0.8,3.8,0.8
	c1.5,0,3-0.3,4.4-0.9c1.3-0.7,2.5-1.6,3.6-2.6l1.8,1.8c-0.6,0.6-1.3,1.2-2,1.8c-0.7,0.5-1.4,1-2.2,1.4c-0.8,0.4-1.7,0.7-2.6,0.9
	C726,225.9,725,226,724,226z"/>
<path class="st0" d="M763.1,226c-1.8,0-3.5-0.3-5.1-1c-1.5-0.6-2.8-1.6-4-2.8c-1.1-1.2-2-2.5-2.5-4c-0.6-1.5-0.9-3.2-0.9-4.8v-0.1
	c0-1.7,0.3-3.3,0.9-4.9c2.7-6.5,10.2-9.6,16.7-6.9c0,0,0.1,0,0.1,0.1c3,1.3,5.3,3.8,6.5,6.8c0.6,1.5,0.9,3.2,0.9,4.8 M775.7,213.3
	c0,1.7-0.3,3.3-0.9,4.9c-1.9,4.8-6.5,8-11.7,7.9L775.7,213.3z M763.2,223.4c2.6,0,5.1-1.1,6.9-3c0.9-0.9,1.5-2,2-3.2
	c0.5-1.3,0.7-2.6,0.7-3.9v-0.1c0-1.4-0.2-2.7-0.7-4c-0.4-1.2-1.1-2.3-2-3.2c-0.9-0.9-1.9-1.7-3.1-2.2c-1.2-0.5-2.5-0.8-3.9-0.8
	c-2.6,0-5.1,1-6.9,3c-0.9,0.9-1.5,2-2,3.2c-0.5,1.3-0.7,2.6-0.7,3.9v0.1c0,1.4,0.2,2.7,0.7,4c0.9,2.4,2.8,4.3,5.1,5.4
	C760.5,223.1,761.9,223.4,763.2,223.4L763.2,223.4z"/>
<path class="st0" d="M795.3,200.9h2.8v22h13.8v2.6h-16.6V200.9z"/>
<path class="st0" d="M830.8,200.9h2.8v22h13.8v2.6h-16.6V200.9z"/>
<path class="st0" d="M866.3,200.9h17.8v2.6h-15v8.3h13.4v2.6h-13.4v8.6h15.2v2.6h-18L866.3,200.9z"/>
<path class="st0" d="M915.1,226c-1.8,0-3.6-0.3-5.2-1c-3-1.2-5.4-3.7-6.5-6.7c-0.6-1.6-0.9-3.3-0.9-4.9v-0.1c0-1.7,0.3-3.3,0.9-4.8
	c0.6-1.5,1.4-2.9,2.5-4.1c1.1-1.2,2.4-2.1,3.9-2.8c1.6-0.7,3.3-1,5-1c0.9,0,1.9,0.1,2.8,0.2c0.8,0.1,1.6,0.3,2.4,0.6
	c0.7,0.3,1.4,0.6,2.1,1c0.7,0.4,1.3,0.9,1.9,1.4l-1.8,2.1c-0.9-0.8-2-1.5-3.2-2c-1.4-0.6-2.9-0.8-4.3-0.8c-1.3,0-2.6,0.3-3.8,0.8
	c-1.1,0.5-2.2,1.3-3,2.2c-0.8,0.9-1.5,2-1.9,3.2c-0.5,1.2-0.7,2.6-0.7,3.9v0.1c0,1.4,0.2,2.8,0.7,4.1c0.4,1.2,1.1,2.3,2,3.2
	c0.9,0.9,1.9,1.7,3.1,2.1c1.3,0.5,2.6,0.8,4,0.8c1.4,0,2.7-0.2,4-0.7c1.1-0.4,2.2-1,3.1-1.7v-6.1h-7.5v-2.5h10.2v9.8
	c-1.3,1.1-2.7,2-4.2,2.6C918.9,225.6,917,226,915.1,226z"/>
<path class="st0" d="M944.9,200.9h17.8v2.6h-15v8.3h13.4v2.6h-13.4v8.6h15.2v2.6h-18L944.9,200.9z"/>
<rect x="276.2" y="0.4" class="st0" width="3" height="225.5"/>
<g>
	<defs>
		<path id="SVGID_1_" d="M232.1,101.6l-6.7-9.2c-4.6-6.3-8.4-17.9-8.4-25.7V55.2c0-7.8-6.1-16.2-13.5-18.6l-10.9-3.5
			c-7.4-2.4-17.3-9.6-21.9-15.9L164,7.9c-4.6-6.3-14.4-9.5-21.9-7.1l-10.9,3.5c-7.4,2.4-19.6,2.4-27.1,0L93.4,0.8
			c-7.4-2.4-17.3,0.8-21.9,7.1l-6.7,9.2c-4.6,6.3-14.4,13.5-21.9,15.9l-10.9,3.5C24.6,39,18.5,47.4,18.5,55.2v11.4
			c0,7.8-3.8,19.4-8.4,25.7l-6.7,9.2c-4.6,6.3-4.6,16.7,0,23l6.7,9.2c4.6,6.3,8.4,17.9,8.4,25.7V171c0,7.8,6.1,16.2,13.5,18.6
			l10.9,3.5c7.4,2.4,17.3,9.6,21.9,15.9l6.7,9.2c4.6,6.3,14.4,9.5,21.9,7.1l10.9-3.5c7.4-2.4,19.6-2.4,27.1,0l10.9,3.5
			c7.4,2.4,17.3-0.8,21.9-7.1l6.7-9.2c4.6-6.3,14.5-13.5,21.9-15.9l10.9-3.5c7.5-2.4,13.5-10.8,13.5-18.6v-11.4
			c0-7.8,3.8-19.4,8.4-25.7l6.7-9.2C236.7,118.3,236.7,107.9,232.1,101.6z M84.4,201.6l18.5-84.7H59.5l90.6-92.5l-18.5,84.6H175
			L84.4,201.6z"/>
	</defs>
	<clipPath id="SVGID_00000088112560160019464990000006869043714999603881_">
		<use xlink:href="#SVGID_1_"  style="overflow:visible;"/>
	</clipPath>
	<g style="clip-path:url(#SVGID_00000088112560160019464990000006869043714999603881_);">
		<path class="st2" d="M-4.1,108.5c-0.3,53.2,33.6,100.5,84,117.4H80l38.7-116.4L-4.1,108.5z"/>
		<path class="st3" d="M118.7,109.4L80,225.8H80c-24.4-8.1-45.6-23.7-60.7-44.5L118.7,109.4z"/>
		<path class="st4" d="M-4.1,108.5c-0.3,53.2,33.6,100.5,84,117.4H80l38.7-116.4L-4.1,108.5z"/>
		<path class="st5" d="M118.7,109.4L80,225.8H80c-24.4-8.1-45.6-23.7-60.7-44.5L118.7,109.4z"/>
		<path class="st6" d="M80.1,226c50.5,16.6,106-1.1,137.5-44v-0.1l-99-72.5L80.1,226z"/>
		<path class="st7" d="M118.7,109.4l98.9,72.5v0.1c-15.2,20.7-36.5,36.1-60.9,44.1L118.7,109.4z"/>
		<path class="st8" d="M217.8,182c31.3-43,31.4-101.3,0.3-144.4H218l-99.3,72L217.8,182z"/>
		<path class="st9" d="M118.7,109.5l99.3-72h0.1c15.1,20.9,23.2,45.9,23.3,71.6L118.7,109.5z"/>
		<path class="st10" d="M218.6,38.2C187.7-5,132.4-23.5,81.7-7.5l-0.1,0l37.1,116.9L218.6,38.2z"/>
		<path class="st11" d="M118.7,109.5L81.6-7.4l0.1,0c24.5-7.7,50.8-7.6,75.2,0.4L118.7,109.5z"/>
		<path class="st12" d="M81.7-7.7C31,8.4-3.6,55.3-4.1,108.4v0.1l122.7,0.9L81.7-7.7z"/>
		<path class="st13" d="M118.6,109.4l-122.7-0.9v-0.1C-3.8,82.8,4.4,57.8,19.6,37L118.6,109.4z"/>
		<polygon class="st14" points="5.3,-17.6 72.5,75.6 -36.5,39.2 		"/>
		<polygon class="st14" points="104.5,128.6 59.6,66.3 132.4,90.6 		"/>
		<polygon class="st14" points="-36.8,177.8 72.7,142.8 4.3,235.2 		"/>
		<polygon class="st14" points="122.8,122.6 113.9,134.8 59.9,152.1 105.5,90.4 		"/>
		<polygon class="st14" points="135.8,278 136.3,163.1 203,256.7 		"/>
		<polygon class="st14" points="141.4,109.8 141.2,178.4 101.7,125.3 		"/>
		<polygon class="st14" points="285.1,145.3 176,109.4 285.6,74.8 		"/>
		<polygon class="st14" points="119.2,85.3 192.1,109.3 141.1,125.4 118.9,132.4 		"/>
		<polygon class="st14" points="204.6,-37.8 136.7,54.9 137.7,-60 		"/>
		<polygon class="st14" points="96.2,101.6 141.6,39.7 140.9,116.4 		"/>
	</g>
</g>
<path class="st5" d="M386.4,149.9c0.1,1,0.9,1.7,1.9,1.8c0.8,0.1,1.6,0.1,2.4,0.1c4,0,8.1,0,12.1,0c11.1,0,22.1,0,33.2,0
	c0.8,0,1.6,0,2.4-0.1c1.1,0,2-0.9,2.2-2c0.1-0.6,0.1-1.1,0.1-1.7c0-3.6,0-7.1,0-10.7c0-0.4,0-0.9-0.1-1.3c0-1.3-1.1-2.4-2.4-2.5
	c-0.8-0.1-1.5-0.1-2.3-0.1h-22.5c-0.8,0-1.5,0-2.3-0.1c-1.2-0.1-2.2-1.1-2.4-2.3c-0.1-0.6-0.2-1.1-0.2-1.7c0-3.1,0-6.2,0-9.4
	c0-0.4,0-0.8,0.1-1.1c0-1.5,1.3-2.8,2.8-2.9c0.7-0.1,1.4-0.1,2.1-0.1h19c0.7,0,1.4,0,2.1-0.1c1.2-0.1,2.1-1.1,2.2-2.2
	c0.1-0.5,0.1-1,0.1-1.5v-11.3c0-0.4,0-0.9,0-1.3c0-1.3-1-2.5-2.4-2.5c-0.7-0.1-1.4-0.1-2.1-0.1h-18c-0.8,0-1.5,0-2.3,0
	c-2.3-0.1-3.3-1.1-3.5-3.4c0-0.3,0-0.6,0-1c0-1.5,0-3.1,0-4.6c0-1.1,0-2.2,0-3.2c0.2-2.2,1.1-3.2,3.3-3.4c0.7-0.1,1.4,0,2.1,0h22.4
	c0.6,0,1.3,0,1.9-0.1c1.1-0.1,2-0.9,2.2-2.1c0.1-0.5,0.1-1,0.1-1.5V66.2c0-0.5,0-1-0.1-1.5c-0.1-1.1-1-2-2.1-2.1
	c-0.7-0.1-1.5-0.1-2.2-0.1h-45.8c-0.8,0-1.5,0-2.2,0.2c-1,0.1-1.8,0.9-1.8,1.9c-0.1,0.9-0.2,1.9-0.2,2.9c0,13.2,0,26.5,0,39.7v11.8
	c0,9.5,0,19,0,28.5C386.2,148.2,386.3,149.1,386.4,149.9z"/>
<path class="st5" d="M333.5,151.8c0.6,0.1,1.3,0.1,1.9,0.1c4.5,0,9.1,0,13.6,0c0.6,0,1.3,0,1.9-0.1c1.3,0,2.5-1,2.5-2.3
	c0-0.1,0-0.1,0-0.2c0.1-0.9,0.1-1.8,0.1-2.7V91.2c0-0.8,0-1.5,0-2.3c0-0.6,0.1-1.1,0.2-1.7c0.2-1,1-1.8,2-2c0.9-0.2,1.7-0.3,2.6-0.3
	c4.8,0,9.7,0,14.5,0c0.7,0,1.4,0,2.1-0.1c1.1-0.1,1.9-0.9,2.1-1.9c0.1-0.6,0.2-1.1,0.2-1.7c0-5.1,0-10.2,0-15.3c0-0.4,0-0.9-0.1-1.3
	c-0.1-1.3-1.1-2.3-2.4-2.2c-0.8-0.1-1.6-0.1-2.4-0.1h-59.8c-0.8,0-1.5,0-2.3,0.1c-1,0.1-1.9,0.9-2,1.9c-0.1,0.6-0.2,1.3-0.2,1.9
	c0,4.9,0,9.8,0,14.7c0,0.6,0.1,1.3,0.2,1.9c0.1,1.1,1,2,2.1,2c0.7,0.1,1.4,0.1,2.1,0.1h13.6c0.8,0,1.5,0,2.2,0.1
	c1.5,0.1,2.7,1.4,2.7,2.9c0.1,0.9,0.1,1.8,0.1,2.7v35.1c0,7.1,0,14.1,0,21.2c0,0.8,0,1.5,0.1,2.3C331.2,151,331.8,151.6,333.5,151.8
	z"/>
<path class="st5" d="M535.2,146.8c0,0.6,0,1.1,0,1.7c0,0.4,0,0.8,0.1,1.1c0.1,1.1,1,2,2.2,2.1c0.5,0.1,1,0.1,1.5,0.1H554
	c0.4,0,0.9,0,1.3-0.1c1.2,0,2.2-1,2.2-2.2c0.1-0.8,0.2-1.5,0.1-2.3c0-8.3,0-16.5,0-24.8c0-0.8,0-1.5,0.1-2.3c0.1-1.3,1-2.4,2.3-2.6
	c0.6-0.1,1.1-0.2,1.7-0.2c7,0,14.1,0,21.1,0c0.3,0,0.6,0,0.9,0.1c2,0.3,2.9,1.2,3,3.2c0.1,1.1,0.1,2.3,0.1,3.4c0,7.7,0,15.4,0,23.1
	c0,0.9,0.1,1.8,0.2,2.7c0.1,1,0.9,1.8,1.9,1.9c0.7,0.1,1.4,0.1,2.1,0.1c4.8,0,9.6,0,14.3,0c0.6,0,1.1,0,1.7-0.1
	c1.3,0,2.3-1.1,2.3-2.4c0.1-0.8,0.1-1.5,0.1-2.3V83.5c0-5.8,0-11.6,0-17.4c0-2.4-0.5-3.8-3.7-3.8c-5.1,0-10.2,0-15.3,0
	c-0.5,0-1,0.1-1.5,0.1c-1,0.1-1.8,1-1.9,2c-0.1,0.9-0.2,1.8-0.2,2.7c0,7.3,0,14.6,0,22c0,0.9,0,1.8-0.1,2.7
	c-0.1,1.4-1.2,2.5-2.6,2.6c-0.7,0.1-1.4,0.1-2.1,0.1h-19.6c-0.8,0-1.5,0-2.3-0.1c-0.8-0.1-1.6-0.5-2-1.2c-0.3-0.6-0.5-1.2-0.5-1.8
	c-0.1-1-0.1-2-0.1-3c0-7.2,0-14.4,0-21.6c0-0.8-0.1-1.6-0.2-2.5c-0.1-0.8-0.8-1.5-1.6-1.7c-0.7-0.1-1.3-0.2-2-0.2
	c-4.9,0-9.8,0-14.7,0c-0.4,0-0.9,0-1.3,0c-1.4,0-2.6,1.1-2.6,2.5c0,0.1,0,0.1,0,0.2c-0.1,0.8,0,1.5,0,2.3
	C535.2,93.9,535.2,120.4,535.2,146.8z"/>
<path class="st5" d="M503.2,150.8c6.8-1.4,13.1-4.5,18.4-8.9c0.6-0.5,1.2-1.1,1.8-1.7c0.6-0.7,0.6-1.7,0.1-2.5
	c-0.3-0.5-0.7-0.9-1.1-1.3c-3.6-3.6-7.2-7.2-10.9-10.9c-1.9-1.9-3-1.9-5.1-0.5c-1.5,1.1-3.1,1.9-4.9,2.5c-3.8,1.3-7.9,1.6-11.9,0.8
	c-7-1.2-12.8-5.9-15.3-12.5c-1.8-4.4-2.2-9.2-1.1-13.9c1.5-6.8,5.3-11.9,11.7-14.7c6.7-3,14.5-2.5,20.8,1.3c0.6,0.4,1.2,0.7,1.8,1.1
	c1,0.6,2.2,0.5,3-0.3c0.5-0.4,1-0.8,1.4-1.3c3.3-3.4,6.7-6.8,10-10.2c0.4-0.4,0.8-0.8,1.1-1.3c0.9-0.8,0.9-2.3,0.1-3.2
	c-0.1-0.1-0.2-0.2-0.3-0.2c-0.8-0.8-1.7-1.5-2.6-2.2c-10.4-7.6-22-10.3-34.7-7.9c-20.3,3.9-35.6,21.8-35.8,43.9
	c0,6,1.2,11.9,3.5,17.5C461.3,144.3,482.4,155.4,503.2,150.8z"/>
<path class="st5" d="M761.7,62.4c-24.3,0-44.1,20.1-44,44.8c-0.4,24.4,19,44.4,43.4,44.8c24.4,0.4,44.4-19,44.8-43.4
	c0-0.4,0-0.9,0-1.3C805.9,82.6,786.1,62.4,761.7,62.4z M761.7,129.1c-12.5,0-21.7-10.5-21.7-22s9.2-22,21.7-22c12.2,0,22,9.8,22,22
	S773.9,129.1,761.7,129.1z"/>
<path class="st5" d="M891.6,67c0.4-0.7,0.7-1.5,0.9-2.3c0.4-0.8,0-1.8-0.8-2.2c-0.2-0.1-0.4-0.2-0.7-0.2c-0.5-0.1-1-0.1-1.5-0.1
	h-14.7c-0.3,0-0.6,0-1,0c-1.5,0-2.9,0.9-3.4,2.2c-0.4,0.9-0.8,1.7-1.2,2.6l-18.5,40.3c-0.3,0.8-0.7,1.5-1.1,2.2
	c-0.2,0.4-0.5,0.9-0.9,1.2c-0.5,0.7-1.5,0.8-2.2,0.3c-0.1-0.1-0.2-0.2-0.3-0.3c-0.3-0.3-0.6-0.7-0.8-1.1c-0.3-0.6-0.6-1.2-0.9-1.9
	c-2.5-5.5-5-11-7.5-16.5c-3.9-8.6-7.8-17.2-11.8-25.8c-1.3-2.9-2-3.4-5.2-3.4c-2.4,0-4.8,0-7.2,0l0,0c-2.3,0-4.5,0-6.8,0
	c-0.8,0-1.5,0-2.3,0.1c-0.9,0-1.6,0.8-1.5,1.7c0,0.2,0,0.4,0.1,0.5c0.1,0.4,0.2,0.7,0.4,1.1c0.2,0.6,0.5,1.2,0.8,1.7
	c12.3,26.8,24.6,53.5,37,80.3c0.3,0.7,0.7,1.4,1,2c0.6,1.3,1.9,2.1,3.3,2.1h5.3c1.4,0,2.7-0.8,3.3-2.1c0.5-0.9,0.9-1.8,1.3-2.8
	c8.9-19.4,17.9-38.9,26.8-58.3C885,81.4,888.3,74.2,891.6,67z"/>
<path class="st5" d="M962.8,149.6c-0.2-0.9-0.5-1.7-0.9-2.5c-12.5-26.9-25-53.9-37.6-80.8c-0.3-0.6-0.6-1.3-0.9-1.9
	c-0.6-1.3-1.9-2.1-3.4-2.1c-1.7,0-3.4,0-5.1,0c-1.4,0-2.7,0.8-3.4,2.1c-0.4,0.8-0.8,1.7-1.2,2.6c-7.7,16.6-15.3,33.2-23,49.8
	c-4.7,10.1-9.3,20.3-14,30.4c-0.4,0.7-0.7,1.5-0.9,2.3c-0.3,0.8,0.1,1.7,0.8,2c0.1,0.1,0.3,0.1,0.4,0.1c0.7,0.1,1.5,0.2,2.2,0.1
	h13.8c0.6,0,1.1,0,1.7,0c1.2,0,2.3-0.7,2.9-1.8c0.3-0.5,0.6-1.1,0.9-1.7c0.7-1.5,1.3-3,2-4.5c1.5-3.1,2.4-3.8,5.8-3.8
	c9.6,0,19.2,0,28.9,0c0.8,0,1.6,0.1,2.4,0.2c1,0.1,1.8,0.7,2.3,1.5c0.4,0.6,0.8,1.3,1.1,2c0.8,1.5,1.4,3.1,2.2,4.6
	c0.3,0.6,0.6,1.1,0.9,1.7c0.6,1,1.6,1.6,2.8,1.7c0.6,0,1.1,0.1,1.7,0.1h6.8c2.4,0,4.9,0,7.3,0c0.6,0,1.3,0,1.9-0.1
	c0.8,0,1.5-0.7,1.5-1.5C962.9,150,962.8,149.8,962.8,149.6z M924.5,120.6c-0.6,0.2-1.2,0.2-1.8,0.2c-1.7,0-3.4,0-5.1,0s-3.4,0-5.1,0
	c-0.6,0-1.2-0.1-1.8-0.2c-1-0.2-1.6-1.2-1.4-2.2c0-0.5,0.2-1,0.4-1.5c1.9-4.3,3.9-8.5,5.9-12.8c0.2-0.5,0.5-0.9,0.8-1.3
	c0.5-0.7,1.5-0.9,2.2-0.4c0.1,0.1,0.3,0.2,0.4,0.4c0.4,0.5,0.7,1,1,1.6c1.9,4,3.7,8,5.5,12.1c0.3,0.6,0.4,1.2,0.5,1.8
	C926,119.5,925.4,120.4,924.5,120.6z"/>
<path class="st5" d="M762.6,166.2c-0.5-0.1-4.1,0.2-6.7,0.1c-5.9-0.5-12-1.3-17.7-4c-6.5-3.1-12.5-7-18-11.7c-5.2-4.4-10-9-14.7-14
	c-1.3-1.3-2.5-2.7-3.8-4.1c-0.1-0.5-0.2-1.1-0.2-1.6c0-0.5,0-2.3,0-2.8c0-21,0-39,0-60.1c0-0.8,0-1.6-0.2-2.4
	c-0.1-1.4-1.1-2.5-2.5-2.6c-0.6-0.1-1.1-0.2-1.7-0.1h-13.8c-0.5,0-0.9,0-1.4,0.1c-1.6,0.1-2.9,1.4-2.8,3.1c-0.1,1-0.1,2-0.1,2.9
	c0,8.9,0,17.8,0,26.8c0,1.4,0,2.8-0.1,4.2c0,0.7-0.2,1.4-0.5,2c-0.3,0.9-1.2,1.3-2.1,1.1c-0.1,0-0.1,0-0.2-0.1l-0.2-0.1
	c-0.5-0.6-29.4-28.5-37.9-37.1c-2.5-2.5-3.2-2.9-4.5-2.9h-2.2c-0.4,0-1.5,0.1-1.5,0.1c-1.6,0.1-2.8,1.5-2.8,3.1
	c-0.1,1-0.1,2-0.1,2.9v5.3l0,0v69.4c0,1.4,0,2.9,0,4.3c0,0.7,0.1,1.4,0.2,2.1c0.2,1.1,1,2,2.1,2.1c0.8,0.1,1.5,0.2,2.3,0.2
	c4.3,0,8.7,0,13,0c0.6,0,1.3,0,1.9-0.1c1.5-0.1,2.6-1.3,2.7-2.7c0.1-0.8,0.1-1.5,0.1-2.3c0-5.4,0-10.8,0-16.2c0-4.8,0-9.6,0-14.3
	c0-0.9,0.1-1.8,0.3-2.6c0.4-1.7,1.7-2.2,3.2-1.3c0.7,0.4,1.4,1,2,1.6c3,3,6,6,8.9,9l2.1,2.1c4.2,4.6,8.4,9.2,12.6,13.5
	c5.1,5.3,10.2,10.2,15.5,14.7c5.2,4.4,10.7,8.3,16.6,11.6c9,5,17.3,8.1,26.8,8.1c19.3,0.1,25-5.1,25.4-5.3c0.3-0.3,0.5-0.6,0.6-1
	C763.3,166.6,763,166.4,762.6,166.2z"/>
<g>
	<path class="st10" d="M484.8,87.4c6.7-3,14.5-2.6,20.8,1.3c0.6,0.4,1.2,0.7,1.8,1.1c1,0.6,2.2,0.5,3-0.3c0.5-0.4,1-0.8,1.4-1.3
		c3.3-3.4,6.7-6.8,10-10.2c0.4-0.4,0.8-0.8,1.1-1.3c0.9-0.8,0.9-2.3,0.1-3.2c-0.1-0.1-0.2-0.2-0.3-0.2c-0.8-0.8-1.7-1.5-2.6-2.2
		c-10.4-7.6-22-10.3-34.7-7.9c-20.3,3.9-35.6,21.8-35.8,43.9c0,6,1.2,11.9,3.5,17.5c8.1,19.7,29.2,30.8,50,26.3
		c6.8-1.4,13.1-4.5,18.4-8.9c0.6-0.5,1.2-1.1,1.8-1.7c0.6-0.7,0.6-1.7,0.1-2.5c-0.3-0.5-0.7-0.9-1.1-1.3c-3.6-3.6-7.2-7.2-10.9-10.9
		c-1.9-1.9-3-1.9-5.1-0.5c-1.5,1.1-3.1,1.9-4.9,2.5c-3.8,1.3-7.9,1.6-11.9,0.8c-7-1.2-12.8-5.9-15.3-12.5c-1.8-4.4-2.2-9.2-1.1-13.9
		C474.5,95.2,478.4,90.2,484.8,87.4z"/>
	<path class="st10" d="M560.4,94.4c-0.8-0.1-1.6-0.5-2-1.2c-0.3-0.6-0.5-1.2-0.5-1.8c-0.1-1-0.1-2-0.1-3c0-7.2,0-14.4,0-21.6
		c0-0.8-0.1-1.6-0.2-2.5c-0.1-0.8-0.8-1.5-1.6-1.7c-0.7-0.1-1.3-0.2-2-0.2c-4.9,0-9.8,0-14.7,0c-0.4,0-0.9,0-1.3,0
		c-1.4,0-2.6,1.1-2.6,2.5c0,0.1,0,0.1,0,0.2c-0.1,0.8,0,1.5,0,2.3c0,26.5,0,52.9,0,79.4c0,0.6,0,1.1,0,1.7c0,0.4,0,0.8,0.1,1.1
		c0.1,1.1,1,2,2.2,2.1c0.5,0.1,1,0.1,1.5,0.1h15.1c0.4,0,0.9,0,1.3-0.1c1.2,0,2.2-1,2.2-2.2c0.1-0.8,0.2-1.5,0.1-2.3
		c0-8.3,0-16.5,0-24.8c0-0.8,0-1.5,0.1-2.3c0.1-1.3,1-2.4,2.3-2.6c0.6-0.1,1.1-0.2,1.7-0.2c7,0,14.1,0,21.1,0c0.3,0,0.6,0,0.9,0.1
		c2,0.3,2.9,1.2,3,3.2c0.1,1.1,0.1,2.3,0.1,3.4c0,7.7,0,15.4,0,23.1c0,0.9,0.1,1.8,0.2,2.7c0.1,1,0.9,1.8,1.9,1.9
		c0.7,0.1,1.4,0.1,2.1,0.1c4.8,0,9.6,0,14.3,0c0.6,0,1.1,0,1.7-0.1c1.3,0,2.3-1.1,2.3-2.4c0.1-0.8,0.1-1.5,0.1-2.3V83.5
		c0-5.8,0-11.6,0-17.4c0-2.4-0.5-3.8-3.7-3.8c-5.1,0-10.2,0-15.3,0c-0.5,0-1,0.1-1.5,0.1c-1,0.1-1.8,1-1.9,2
		c-0.1,0.9-0.2,1.8-0.2,2.7c0,7.3,0,14.6,0,22c0,0.9,0,1.8-0.1,2.7c-0.1,1.4-1.2,2.5-2.6,2.6c-0.7,0.1-1.4,0.1-2.1,0.1h-19.7
		C561.9,94.5,561.1,94.5,560.4,94.4z"/>
	<path class="st10" d="M310.2,84.8c0.7,0.1,1.4,0.1,2.1,0.1h13.6c0.8,0,1.5,0,2.2,0.1c1.5,0.1,2.7,1.4,2.7,2.9
		c0.1,0.9,0.1,1.8,0.1,2.7v35.1c0,7.1,0,14.1,0,21.2c0,0.8,0,1.5,0.1,2.3c0.2,1.7,0.9,2.3,2.5,2.5c0.6,0.1,1.3,0.1,1.9,0.1
		c4.5,0,9.1,0,13.6,0c0.6,0,1.3,0,1.9-0.1c1.3,0,2.5-1,2.5-2.3c0-0.1,0-0.1,0-0.2c0.1-0.9,0.1-1.8,0.1-2.7V91.2c0-0.8,0-1.5,0-2.3
		c0-0.6,0.1-1.1,0.2-1.7c0.2-1,1-1.8,2-2c0.9-0.2,1.7-0.3,2.6-0.3c4.8,0,9.7,0,14.5,0c0.7,0,1.4,0,2.1-0.1c1.1-0.1,1.9-0.9,2.1-1.9
		c0.1-0.6,0.2-1.1,0.2-1.7c0-5.1,0-10.2,0-15.3c0-0.4,0-0.9-0.1-1.3c-0.1-1.3-1.1-2.3-2.4-2.2c-0.8-0.1-1.6-0.1-2.4-0.1h-59.7
		c-0.8,0-1.5,0-2.3,0.1c-1,0.1-1.9,0.9-2,1.9c-0.1,0.6-0.2,1.3-0.2,1.9c0,4.9,0,9.8,0,14.7c0,0.6,0.1,1.3,0.2,1.9
		C308.2,83.9,309.1,84.8,310.2,84.8z"/>
	<path class="st10" d="M412.1,81.2c0.7-0.1,1.4,0,2.1,0h22.4c0.6,0,1.3,0,1.9-0.1c1.1-0.1,2-0.9,2.2-2.1c0.1-0.5,0.1-1,0.1-1.5V66.2
		c0-0.5,0-1-0.1-1.5c-0.1-1.1-1-2-2.1-2.1c-0.7-0.1-1.5-0.1-2.2-0.1h-45.8c-0.8,0-1.5,0-2.2,0.2c-1,0.1-1.8,0.9-1.8,1.9
		c-0.1,0.9-0.2,1.9-0.2,2.9c0,13.2,0,26.5,0,39.7v11.8c0,9.5,0,19,0,28.5c0,0.9,0.1,1.8,0.2,2.6c0.1,1,0.9,1.7,1.9,1.8
		c0.8,0.1,1.6,0.1,2.4,0.1c4,0,8,0,12.1,0c11.1,0,22.1,0,33.2,0c0.8,0,1.6,0,2.4-0.1c1.1,0,2-0.9,2.2-2c0.1-0.6,0.1-1.1,0.1-1.7
		c0-3.6,0-7.1,0-10.7c0-0.4,0-0.9-0.1-1.3c0-1.3-1.1-2.4-2.4-2.5c-0.8-0.1-1.5-0.1-2.3-0.1h-22.5c-0.8,0-1.5,0-2.3-0.1
		c-1.2-0.1-2.2-1.1-2.4-2.3c-0.1-0.6-0.2-1.1-0.2-1.7c0-3.1,0-6.2,0-9.4c0-0.4,0-0.8,0.1-1.1c0-1.5,1.3-2.8,2.8-2.9
		c0.7-0.1,1.4-0.1,2.1-0.1h19c0.7,0,1.4,0,2.1-0.1c1.2-0.1,2.1-1.1,2.2-2.2c0.1-0.5,0.1-1,0.1-1.5v-11.3c0-0.4,0-0.9,0-1.3
		c0-1.3-1-2.5-2.4-2.5c-0.7-0.1-1.4-0.1-2.1-0.1h-18c-0.8,0-1.5,0-2.3,0c-2.3-0.1-3.3-1.1-3.5-3.4c0-0.3,0-0.6,0-1
		c0-1.5,0-3.1,0-4.6c0-1.1,0-2.2,0-3.2C408.9,82.3,409.9,81.3,412.1,81.2z"/>
	<path class="st10" d="M627.1,87.4v56.2c0,1.4,0,2.9,0,4.3c0,0.7,0.1,1.4,0.2,2.1c0.2,1.1,1,2,2.1,2.1c0.8,0.1,1.5,0.2,2.3,0.2
		c4.3,0,8.7,0,13,0c0.6,0,1.3,0,1.9-0.1c1.5-0.1,2.6-1.3,2.7-2.7c0.1-0.8,0.1-1.5,0.1-2.3c0-5.4,0-10.8,0-16.2c0-4.8,0-9.6,0-14.3
		c0-0.9,0.1-1.8,0.3-2.6c0.1-0.7,0.5-1.3,1.1-1.6L627.1,87.4z"/>
</g>
</svg>
