<?xml version="1.0" encoding="utf-8"?>
<!-- Generator: Adobe Illustrator 27.5.0, SVG Export Plug-In . SVG Version: 6.00 Build 0)  -->
<svg version="1.1" id="body_1" xmlns="http://www.w3.org/2000/svg" xmlns:xlink="http://www.w3.org/1999/xlink" x="0px" y="0px"
	 viewBox="0 0 51.1 61.1" style="enable-background:new 0 0 51.1 61.1;" xml:space="preserve">
<style type="text/css">
	.st0{fill:#040404;}
	.st1{fill:#FCA625;}
</style>
<g transform="matrix(0.92086333 0 0 0.92086333 58.01439 -0)">
	<path class="st0" d="M-37.1,28.1c-1,0.2-2.6,1.2-3.5,2c-1.4,1.5-2.1,3.2-2.1,5.2c0,2.7,1.1,5,3.3,6.5c0.8,0.6,0.8,0.6,0.4,0.7
		c-0.7,0.2-2.3,1.1-3.1,1.9c-1.2,1-2.2,2.4-3.8,5c-1.8,3-1.9,3-2.1,3c-0.1,0-0.8-0.7-1.5-1.5l0,0l-1.4-1.5l0.5-0.7
		c0.8-1.2,0.9-2.3,0.3-3.6c-1.2-2.5-4.3-2.5-5.5,0c-0.6,1.4-0.5,2.5,0.9,5.4c2.4,5.2,5.1,8.1,7.8,8c1.1,0,2-0.5,3.1-1.9
		c0.9-1,1.1-1.1,1.2-0.8c0.2,0.7,0.5,5.9,0.4,7.6l0,0l-0.1,1.9h6.6h6.6l-0.1-1.6c-0.1-2-0.1-2.4,0-5.5c0.1-2.9,0.2-2.9,1.5-1.5
		c1.2,1.2,1.9,1.6,3,1.6c2.5,0,5.4-3,7.7-8c1.4-3.2,1.6-4.5,0.6-5.8c-2-2.8-5.9-1.2-5.6,2.3c0,0.6,0.2,1,0.5,1.6
		c0.3,0.4,0.5,0.8,0.5,0.8c0,0.1-0.6,0.7-1.3,1.5c-0.9,0.9-1.4,1.4-1.6,1.3c-0.2,0-0.7-0.9-1.4-2c-2.7-4.5-4.6-6.7-6.9-7.6l0,0
		l-0.8-0.3l1-0.7c2.7-2,3.8-5.4,2.8-8.7C-30.3,29.5-33.6,27.4-37.1,28.1"/>
	<path class="st1" d="M-32,0.6c-0.1,0.1-0.2,0.4-0.2,0.6c0,0.8-0.5,2.5-1.1,3.8c-1.5,3.2-1.2,5.5,0.8,7.5c1.3,1.3,3.5,2.4,3.8,1.9
		c0-0.1,0.1-0.7,0.2-1.4c0.1-0.7,0.4-2.2,0.7-3.3c0.4-1.7,0.5-2.2,0.5-3.4c0-1-0.1-1.5-0.4-2.1c-0.5-1-1.6-2.3-2.7-3.1
		C-31.3,0.4-31.7,0.3-32,0.6 M-52.8,2.3c-1.2,1.3-1.7,2.4-1.7,4.1c0,1.2,0.1,1.5,0.5,2.3c0.2,0.6,0.8,1.5,1.3,2.2
		c1.1,1.5,1.6,2.5,1.9,3.7c0.4,1.5,0.5,1.6,0.9,1.6c0.3,0,0.7-0.3,1.4-1.1c1.7-1.8,2.3-3.8,1.9-5.6c-0.2-1-1-2.2-2.5-4.1
		c-1.3-1.6-1.7-2.2-1.8-3.1C-51.1,1-51.6,1-52.8,2.3 M-43.1,7.9c-0.2,0.2-0.3,0.5-0.4,0.7c-0.5,2.3-1.8,6.2-2.8,8.5
		c-1.7,3.7-2.9,5.3-6.8,9.5c-3.3,3.5-4.2,4.7-5.7,7.4c-0.9,1.6-1.8,4.1-2.2,5.9c-0.4,2-0.5,5.5-0.2,7.5c0.7,4.3,2.7,8.8,5.4,11.7
		c3,3.3,8.1,5.9,12.5,6.3l0,0l1,0.1l0.1-1.9c0.1-1.7-0.2-6.9-0.4-7.6c-0.1-0.3-0.3-0.2-1.2,0.8c-1.2,1.3-2.1,1.9-3.1,1.9
		c-2.7,0-5.4-2.8-7.8-8c-1.3-2.9-1.5-4-0.9-5.4c1.2-2.5,4.3-2.5,5.5,0c0.6,1.3,0.5,2.4-0.3,3.6l0,0l-0.5,0.7l1.4,1.5
		c0.7,0.8,1.4,1.5,1.5,1.5c0.2,0,0.3-0.1,2.1-3c1.6-2.6,2.6-4,3.8-5c0.8-0.7,2.4-1.7,3.1-1.9c0.4-0.1,0.4-0.1-0.4-0.7
		c-2.2-1.5-3.3-3.8-3.3-6.5c0-2.8,1.5-5.3,3.9-6.6c4.4-2.3,9.5,0.7,10,6c0.3,2.6-1,5.3-3.2,6.9l0,0l-1,0.7l0.8,0.3
		c2.3,0.9,4.3,3,6.9,7.6c0.7,1.2,1.3,2,1.4,2c0.2,0,0.7-0.4,1.6-1.3c0.7-0.8,1.3-1.4,1.3-1.5c0-0.1-0.2-0.4-0.5-0.8
		c-1.1-1.7-0.5-4.1,1.2-5.1c1.2-0.7,2.9-0.1,3.8,1.2c0.9,1.3,0.8,2.7-0.6,5.8c-2.2,5-5.2,8-7.7,8c-1.1,0-1.8-0.4-3-1.6
		c-1.3-1.4-1.4-1.4-1.5,1.5c-0.1,3.1-0.1,3.5,0,5.4l0,0l0.1,1.6l0.7,0c0.4,0,0.7,0,0.8-0.1c0-0.1,0.8-0.3,1.6-0.5
		c4.9-1.2,9.5-4.2,12.1-7.9c4.4-6.3,4.7-14.9,0.8-25.4c-2.1-5.6-6.5-13.4-10-17.4c-1.2-1.3-2-1.9-2.6-1.8c-0.6,0.2-0.8,0.5-1.1,2
		c-0.4,2.7-1.5,4.4-3.9,6.2l0,0l-1.1,0.8l-0.2-0.9c-0.3-1.3-1.5-3.8-2.5-5.4c-1.6-2.3-4.8-5.7-7-7.2C-42,7.6-42.7,7.5-43.1,7.9
		 M-10,9.8c-1.2,0.2-2.5,1-3.2,1.9c-0.9,1.2-1.1,2.4-1.2,5.2c-0.1,2.6-0.1,3.2-0.5,4.3c-0.2,0.6-0.2,0.8,0,1.1
		c0.2,0.3,0.2,0.3,1.4,0.2c3-0.2,4.6-1.6,5-4.3c0.1-0.5,0.1-2.1,0.1-3.6c-0.1-2.7-0.1-2.7,0.3-3.4C-7.4,9.8-7.8,9.4-10,9.8
		 M-62.5,13c-0.1,0.3-0.1,0.5,0.2,1c0.5,0.7,0.5,1.7,0.2,4.1c-0.4,3-0.2,4.5,0.6,5.9c0.9,1.5,3.3,2.8,5,2.8l0,0l0.9,0l0-0.9
		c0-0.8,0-4.9,0-7.5c0-1.9-0.3-2.8-1.3-3.9c-0.9-1-1.8-1.4-3.4-1.7C-61.9,12.5-62.4,12.6-62.5,13"/>
</g>
</svg>
