<?xml version="1.0" standalone="no"?>
<!DOCTYPE svg PUBLIC "-//W3C//DTD SVG 1.0//EN" "http://www.w3.org/TR/2001/REC-SVG-20010904/DTD/svg10.dtd">
<svg xmlns="http://www.w3.org/2000/svg" xmlns:xlink="http://www.w3.org/1999/xlink" id="body_1" width="512" height="384">

<g transform="matrix(0.92086333 0 0 0.92086333 58.01439 -0)">
    <path d="M204 177.091C 196.872 178.473 185.804 184.476 180.184 190.008C 170.735 199.309 165.967 210.401 165.786 223.5C 165.547 240.879 173.437 255.438 188.34 265.122C 194.149 268.896 194.166 268.92 191.34 269.587C 186.602 270.704 175.827 276.718 170 281.497C 161.878 288.158 154.905 296.717 143.929 313.5C 131.431 332.609 131.145 333 129.684 333C 129.011 333 124.262 328.784 119.13 323.63L119.13 323.63L109.799 314.26L112.902 309.976C 118.456 302.31 119.123 295.043 115.008 287.047C 106.831 271.155 85.085 271.129 77.044 287C 72.623 295.725 73.872 303.027 82.943 321.5C 99.371 354.955 118.254 373.021 136.761 372.991C 144.079 372.979 150.219 369.597 158.341 361.106C 164.291 354.886 165.727 354.03 166.496 356.25C 168.063 360.778 170.086 393.854 169.461 404.75L169.461 404.75L168.759 417L214.332 417L259.905 417L259.226 406.75C 258.396 394.227 258.41 391.619 259.414 371.75C 260.358 353.074 260.469 352.968 269.672 361.918C 277.828 369.849 282.882 372.402 290.5 372.437C 307.862 372.518 328.006 352.957 343.362 321.108C 353.094 300.923 354.092 292.214 347.642 283.747C 334.003 265.842 307.349 276.084 309.21 298.514C 309.554 302.668 310.474 305.218 312.836 308.569C 314.576 311.038 316 313.392 316 313.8C 316 314.208 312.009 318.514 307.131 323.369C 301.109 329.364 297.666 332.082 296.406 331.84C 295.307 331.628 291.278 326.334 286.525 318.855C 268.073 289.823 254.701 276.276 238.794 270.505L238.794 270.505L233.089 268.435L239.782 263.929C 258.586 251.268 266.159 229.308 258.948 208.349C 251.181 185.775 227.805 172.477 204 177.091" stroke="none" fill="#040404" fill-rule="nonzero" />
    <path d="M239.2 1.2C 238.54 1.86 237.993 3.548 237.985 4.95C 237.954 10.298 234.779 20.666 230.494 29.41C 220.375 50.062 222.01 64.387 235.963 77.305C 244.769 85.458 260.344 92.488 262.363 89.222C 262.627 88.794 263.347 84.631 263.961 79.972C 264.576 75.312 266.677 65.674 268.631 58.554C 271.696 47.388 272.136 44.432 271.83 37.054C 271.556 30.413 270.92 27.398 268.988 23.571C 265.61 16.88 258.133 8.897 250.687 4.032C 244.322 -0.127 241.278 -0.878 239.2 1.2M95.886 11.954C 87.394 20.446 84.5 27.066 84.5 38C 84.5 45.441 84.886 47.31 87.6 53C 89.305 56.575 93.271 62.875 96.414 67C 103.862 76.777 107.402 83.127 109.512 90.5C 112.315 100.292 112.717 101 115.485 101C 117.265 101 120.036 99.002 124.845 94.25C 136.245 82.987 140.92 70.173 138.028 58.118C 136.449 51.533 131.469 43.913 120.775 31.717C 111.631 21.29 109.321 17.489 108.7 11.849C 107.809 3.763 104.045 3.795 95.886 11.954M163.025 47.975C 161.939 49.061 160.78 51.198 160.449 52.725C 157.218 67.633 148.346 92.39 140.996 107.008C 128.998 130.87 121.14 141.083 94.067 168C 71.301 190.635 65.161 198.038 54.935 215.186C 48.917 225.279 42.578 241.127 39.877 252.832C 36.904 265.718 36.258 287.882 38.47 301.122C 43.119 328.946 57.317 357.299 75.989 376.045C 96.86 396.999 132.109 413.623 161.891 416.558L161.891 416.558L168.746 417.233L169.455 404.867C 170.086 393.859 168.074 360.809 166.496 356.25C 165.727 354.03 164.291 354.886 158.341 361.106C 150.219 369.597 144.079 372.979 136.761 372.991C 118.254 373.021 99.371 354.955 82.943 321.5C 73.872 303.027 72.623 295.725 77.044 287C 85.085 271.129 106.831 271.155 115.008 287.047C 119.123 295.043 118.456 302.31 112.902 309.976L112.902 309.976L109.799 314.26L119.13 323.63C 124.262 328.784 129.011 333 129.684 333C 131.145 333 131.431 332.609 143.929 313.5C 154.905 296.717 161.878 288.158 170 281.497C 175.827 276.718 186.602 270.704 191.34 269.587C 194.166 268.92 194.149 268.896 188.34 265.122C 173.437 255.438 165.547 240.879 165.786 223.5C 166.037 205.304 176.039 189.538 192.49 181.407C 222.858 166.399 257.716 185.761 261.551 219.768C 263.41 236.247 254.723 253.869 239.782 263.929L239.782 263.929L233.089 268.435L238.794 270.505C 254.701 276.276 268.073 289.823 286.525 318.855C 291.278 326.334 295.307 331.628 296.406 331.84C 297.666 332.082 301.109 329.364 307.131 323.369C 312.009 318.514 316 314.208 316 313.8C 316 313.392 314.576 311.038 312.836 308.569C 305.34 297.935 309.415 282.619 321.439 276.229C 329.404 271.997 341.288 275.406 347.642 283.747C 354.092 292.214 353.094 300.923 343.362 321.108C 328.006 352.957 307.862 372.518 290.5 372.437C 282.882 372.402 277.828 369.849 269.672 361.918C 260.469 352.968 260.358 353.074 259.414 371.75C 258.417 391.484 258.4 394.193 259.203 406.5L259.203 406.5L259.855 416.5L264.581 416.811C 267.18 416.982 269.575 416.744 269.903 416.282C 270.231 415.82 275.225 414.4 281 413.127C 314.56 405.725 346.525 386.341 364.456 362.515C 394.891 322.076 396.844 267.515 370.273 200C 356.093 163.969 325.211 114.299 301.068 88.693C 293.13 80.273 287.214 76.575 283.123 77.473C 278.65 78.455 277.326 80.736 275.564 90.5C 272.479 107.594 265.018 118.66 249.032 129.856L249.032 129.856L241.564 135.086L240.259 129.293C 238.393 121.013 230.181 104.765 222.894 94.939C 211.88 80.083 189.499 58.61 174.61 48.612C 169.976 45.5 165.733 45.267 163.025 47.975M390.501 60.07C 382.455 61.414 373.16 66.731 368.771 72.5C 362.85 80.282 360.97 87.831 360.514 105.655C 360.096 121.979 359.643 125.931 357.354 133.198C 356.192 136.887 356.126 138.367 357.047 140.087C 358.153 142.154 358.682 142.243 366.402 141.649C 387.029 140.064 398.223 131.254 401.046 114.385C 401.609 111.016 401.767 101.232 401.413 91.5C 400.797 74.545 400.803 74.487 403.398 69.697C 408.78 59.763 405.774 57.519 390.501 60.07M28.868 80.39C 27.956 82.392 28.203 83.405 30.389 86.622C 33.531 91.246 33.796 97.395 31.506 112.587C 28.646 131.563 29.785 141.467 35.842 150.27C 42.253 159.589 58.392 168.02 70.43 168.339L70.43 168.339L76.5 168.5L76.288 163C 76.08 157.627 76.101 131.968 76.326 115C 76.484 103.081 74.291 97.131 67.083 89.923C 60.907 83.747 54.569 80.785 43.787 79.035C 33.343 77.341 30.124 77.633 28.868 80.39" stroke="none" fill="#FCA625" fill-rule="nonzero" />
</g>
</svg>