<?xml version="1.0" encoding="utf-8"?>
<!-- Generator: Adobe Illustrator 27.5.0, SVG Export Plug-In . SVG Version: 6.00 Build 0)  -->
<svg version="1.1" id="body_1" xmlns="http://www.w3.org/2000/svg" xmlns:xlink="http://www.w3.org/1999/xlink" x="0px" y="0px"
	 viewBox="0 0 962.9 226.2" style="enable-background:new 0 0 962.9 226.2;" xml:space="preserve">
<style type="text/css">
	.st0{fill:#040404;}
	.st1{fill:#FCA625;}
</style>
<g transform="matrix(0.92086333 0 0 0.92086333 58.01439 -0)">
	<path class="st0" d="M451.9,105.4c-4.1,0.8-10.7,4.5-14.4,7.5c-5.8,5.7-8.6,12.1-8.6,19.6c0,10.2,4.5,18.8,13.6,24.5
		c3.3,2.3,3.3,2.3,1.6,2.6c-2.9,0.8-9.5,4.1-12.8,7.2c-4.9,3.8-9.1,9-15.6,18.8c-7.4,11.3-7.8,11.3-8.6,11.3c-0.4,0-3.3-2.6-6.2-5.7
		l0,0l-5.8-5.7l2.1-2.6c3.3-4.5,3.7-8.7,1.2-13.6c-4.9-9.4-17.7-9.4-22.6,0c-2.5,5.3-2.1,9.4,3.7,20.4c9.9,19.6,21,30.5,32.1,30.2
		c4.5,0,8.2-1.9,12.8-7.2c3.7-3.8,4.5-4.1,4.9-3c0.8,2.6,2.1,22.2,1.6,28.6l0,0l-0.4,7.2h27.2h27.2l-0.4-6c-0.4-7.5-0.4-9,0-20.7
		c0.4-10.9,0.8-10.9,6.2-5.7c4.9,4.5,7.8,6,12.3,6c10.3,0,22.2-11.3,31.7-30.2c5.8-12.1,6.6-17,2.5-21.9c-8.2-10.6-24.3-4.5-23,8.7
		c0,2.3,0.8,3.8,2.1,6c1.2,1.5,2.1,3,2.1,3c0,0.4-2.5,2.6-5.4,5.7c-3.7,3.4-5.8,5.3-6.6,4.9c-0.8,0-2.9-3.4-5.8-7.5
		c-11.1-17-18.9-25.3-28.4-28.6l0,0l-3.3-1.1l4.1-2.6c11.1-7.5,15.6-20.4,11.5-32.8C479.9,110.7,466.3,102.7,451.9,105.4"/>
	<path class="st1" d="M472.9,0.6c-0.4,0.4-0.8,1.5-0.8,2.3c0,3-2.1,9.4-4.5,14.3c-6.2,12.1-4.9,20.7,3.3,28.3
		c5.4,4.9,14.4,9,15.6,7.2c0-0.4,0.4-2.6,0.8-5.3c0.4-2.6,1.6-8.3,2.9-12.4c1.6-6.4,2.1-8.3,2.1-12.8c0-3.8-0.4-5.7-1.6-7.9
		c-2.1-3.8-6.6-8.7-11.1-11.7C475.8-0.2,474.1-0.5,472.9,0.6 M387.3,7c-4.9,4.9-7,9-7,15.5c0,4.5,0.4,5.7,2.1,8.7
		c0.8,2.3,3.3,5.7,5.4,8.3c4.5,5.7,6.6,9.4,7.8,13.9c1.6,5.7,2.1,6,3.7,6c1.2,0,2.9-1.1,5.8-4.1c7-6.8,9.5-14.3,7.8-21.1
		c-0.8-3.8-4.1-8.3-10.3-15.5c-5.4-6-7-8.3-7.4-11.7C394.3,2.1,392.2,2.1,387.3,7 M427.2,28.1c-0.8,0.8-1.2,1.9-1.6,2.6
		c-2.1,8.7-7.4,23.4-11.5,32c-7,13.9-11.9,20-28,35.8c-13.6,13.2-17.3,17.7-23.5,27.9c-3.7,6-7.4,15.5-9.1,22.2
		c-1.6,7.5-2.1,20.7-0.8,28.3c2.9,16.2,11.1,33.2,22.2,44.1c12.3,12.4,33.3,22.2,51.4,23.7l0,0l4.1,0.4l0.4-7.2
		c0.4-6.4-0.8-26-1.6-28.6c-0.4-1.1-1.2-0.8-4.9,3c-4.9,4.9-8.6,7.2-12.8,7.2c-11.1,0-22.2-10.6-32.1-30.2
		c-5.4-10.9-6.2-15.1-3.7-20.4c4.9-9.4,17.7-9.4,22.6,0c2.5,4.9,2.1,9-1.2,13.6l0,0l-2.1,2.6l5.8,5.7c2.9,3,5.8,5.7,6.2,5.7
		c0.8,0,1.2-0.4,8.6-11.3c6.6-9.8,10.7-15.1,15.6-18.8c3.3-2.6,9.9-6.4,12.8-7.2c1.6-0.4,1.6-0.4-1.6-2.6
		c-9.1-5.7-13.6-14.3-13.6-24.5c0-10.6,6.2-20,16.1-24.9c18.1-8.7,39.1,2.6,41.2,22.6c1.2,9.8-4.1,20-13.2,26l0,0l-4.1,2.6l3.3,1.1
		c9.5,3.4,17.7,11.3,28.4,28.6c2.9,4.5,5.4,7.5,5.8,7.5c0.8,0,2.9-1.5,6.6-4.9c2.9-3,5.4-5.3,5.4-5.7s-0.8-1.5-2.1-3
		c-4.5-6.4-2.1-15.5,4.9-19.2c4.9-2.6,11.9-0.4,15.6,4.5s3.3,10.2-2.5,21.9c-9.1,18.8-21.4,30.2-31.7,30.2c-4.5,0-7.4-1.5-12.3-6
		c-5.4-5.3-5.8-5.3-6.2,5.7c-0.4,11.7-0.4,13.2,0,20.4l0,0l0.4,6h2.9c1.6,0,2.9,0,3.3-0.4c0-0.4,3.3-1.1,6.6-1.9
		c20.2-4.5,39.1-15.8,49.8-29.8c18.1-23.7,19.3-56.2,3.3-95.7c-8.6-21.1-26.8-50.5-41.2-65.6c-4.9-4.9-8.2-7.2-10.7-6.8
		c-2.5,0.8-3.3,1.9-4.5,7.5c-1.6,10.2-6.2,16.6-16.1,23.4l0,0l-4.5,3l-0.8-3.4c-1.2-4.9-6.2-14.3-10.3-20.4
		c-6.6-8.7-19.8-21.5-28.8-27.1C431.7,27,428.9,26.6,427.2,28.1 M563.4,35.3c-4.9,0.8-10.3,3.8-13.2,7.2c-3.7,4.5-4.5,9-4.9,19.6
		c-0.4,9.8-0.4,12.1-2.1,16.2c-0.8,2.3-0.8,3,0,4.1c0.8,1.1,0.8,1.1,5.8,0.8c12.3-0.8,18.9-6,20.6-16.2c0.4-1.9,0.4-7.9,0.4-13.6
		c-0.4-10.2-0.4-10.2,1.2-12.8C574.1,35.3,572.5,33.8,563.4,35.3 M347.4,47.3c-0.4,1.1-0.4,1.9,0.8,3.8c2.1,2.6,2.1,6.4,0.8,15.5
		c-1.6,11.3-0.8,17,2.5,22.2c3.7,5.7,13.6,10.6,20.6,10.6l0,0h3.7V96c0-3,0-18.5,0-28.3c0-7.2-1.2-10.6-5.4-14.7
		c-3.7-3.8-7.4-5.3-14-6.4C349.8,45.5,347.8,45.8,347.4,47.3"/>
</g>
</svg>
